<svg width="160" height="160" viewBox="0 0 160 160" fill="none" xmlns="http://www.w3.org/2000/svg">
<g clip-path="url(#clip0_46_2)">
<rect width="160" height="160" rx="20" fill="white"/>
<rect y="120" width="160" height="40" fill="#CFA773"/>
<path d="M160 140.7L157.944 139.931C155.9 139.191 151.778 137.609 147.667 136.481C143.589 135.309 139.444 134.591 135.333 135.719C131.278 136.891 127.222 139.909 123.111 138.4C118.978 136.891 114.889 130.709 110.778 128.05C106.667 125.391 102.556 126.109 98.4444 126.519C94.3556 126.9 90.2222 126.9 86.1111 128.819C82.0556 130.709 78 134.591 73.8889 133.8C69.7444 133.009 65.6667 127.691 61.5556 127.669C57.4333 127.691 53.3333 133.009 49.2222 134.95C45.1333 136.891 41 135.309 36.8889 133.031C32.8222 130.709 28.6667 127.691 24.6667 127.281C20.5111 126.9 16.4444 129.2 12.3333 129.969C8.2 130.709 4.11111 129.991 2 129.581L-2.19746e-06 129.2L-3.00175e-06 120L2.05555 120C4.1 120 8.22222 120 12.3333 120C16.4111 120 20.5556 120 24.6667 120C28.7222 120 32.7778 120 36.8889 120C41.0222 120 45.1111 120 49.2222 120C53.3333 120 57.4444 120 61.5556 120C65.6444 120 69.7778 120 73.8889 120C77.9444 120 82 120 86.1111 120C90.2556 120 94.3333 120 98.4444 120C102.567 120 106.667 120 110.778 120C114.867 120 119 120 123.111 120C127.178 120 131.333 120 135.333 120C139.489 120 143.556 120 147.667 120C151.8 120 155.889 120 158 120L160 120L160 140.7Z" fill="#E97D90"/>
<rect y="80" width="160" height="40" fill="#E97D90"/>
<path d="M1.1365e-06 80L2.42222 81.2423C4.84445 82.4661 9.66667 84.9787 14.5556 86.7003C19.3889 88.4219 24.2222 89.4455 29.1111 89.6782C33.9444 89.9108 38.7778 89.4455 43.6667 87.9426C48.4889 86.4676 53.3333 83.955 58.2222 83.2245C63.0333 82.4661 67.8889 83.4897 72.7778 84.9647C77.5778 86.4676 82.4444 88.4219 87.2222 90.1761C92.1222 91.9116 97 93.4006 101.778 92.9027C106.667 92.4234 111.556 89.9108 116.333 89.6782C121.211 89.4455 126.111 91.3998 130.889 90.9205C135.756 90.4227 140.556 87.4448 145.444 85.2113C150.3 82.9779 155.111 81.489 157.556 80.7445L160 80L157.578 80C155.156 80 150.333 80 145.444 80C140.611 80 135.778 80 130.889 80C126.056 80 121.222 80 116.333 80C111.511 80 106.667 80 101.778 80C96.9667 80 92.1111 80 87.2222 80C82.4222 80 77.5556 80 72.7778 80C67.8778 80 63 80 58.2222 80C53.3333 80 48.4444 80 43.6667 80C38.7889 80 33.8889 80 29.1111 80C24.2444 80 19.4444 80 14.5556 80C9.7 80 4.88889 80 2.44445 80L1.1365e-06 80Z" fill="#68DCF1"/>
<rect y="40" width="160" height="40" fill="#68DCF1"/>
<path d="M160 40L157.578 40.7645C155.156 41.5176 150.333 43.0638 145.444 44.1233C140.611 45.1827 135.778 45.8126 130.889 45.9558C126.056 46.099 121.222 45.8126 116.333 44.8878C111.511 43.9801 106.667 42.4339 101.778 41.9843C96.9667 41.5176 92.1111 42.1475 87.2222 43.0552C82.4222 43.9801 77.5556 45.1827 72.7778 46.2622C67.8778 47.3302 63 48.2465 58.2222 47.9401C53.3333 47.6452 48.4444 46.099 43.6667 45.9558C38.7889 45.8126 33.8889 47.0152 29.1111 46.7203C24.2444 46.4139 19.4444 44.5814 14.5556 43.207C9.7 41.8326 4.88889 40.9163 2.44444 40.4581L-4.92712e-07 40L2.42223 40C4.84445 40 9.66667 40 14.5556 40C19.3889 40 24.2222 40 29.1111 40C33.9444 40 38.7778 40 43.6667 40C48.4889 40 53.3333 40 58.2222 40C63.0333 40 67.8889 40 72.7778 40C77.5778 40 82.4444 40 87.2222 40C92.1222 40 97 40 101.778 40C106.667 40 111.556 40 116.333 40C121.211 40 126.111 40 130.889 40C135.756 40 140.556 40 145.444 40C150.3 40 155.111 40 157.556 40L160 40Z" fill="#8673EF"/>
<rect width="160" height="40" fill="#8673EF"/>
<path d="M94.0464 46.6745C93.931 47.6818 93.6233 49.2121 93.1618 51.2847C92.681 53.3574 92.3349 55.43 92.1041 57.5027C91.8734 59.5754 91.8542 61.3768 92.0465 62.8684C92.2388 64.3599 92.8926 65.0379 94.0079 64.9023C94.8925 64.786 95.8155 63.895 96.777 62.2098C97.7385 60.5245 98.5847 58.4906 99.3154 56.108C100.027 53.7254 100.585 51.2266 100.95 48.6503C101.315 46.0547 101.373 43.7496 101.123 41.735C100.911 40.0304 100.431 38.7132 99.7 37.7253C98.9693 36.7568 97.8924 36.4081 96.4501 36.6599C93.4118 37.1248 90.4888 38.7132 87.6428 41.4057C84.7967 44.0983 82.1622 47.4881 79.7008 51.5753C77.2393 55.6625 75.0279 60.234 73.0472 65.2703C71.0665 70.326 69.4512 75.4592 68.2012 80.7087C66.9513 85.9581 66.0859 91.072 65.6052 96.0502C65.1244 101.028 65.1437 105.503 65.6436 109.455C65.9321 111.721 66.3744 113.736 67.009 115.498C67.6436 117.261 68.4512 118.753 69.4704 119.992C70.4704 121.213 71.6626 122.084 73.028 122.607C74.3933 123.13 75.9894 123.227 77.8355 122.917C81.4315 122.375 84.5275 121.135 87.1428 119.217C89.7581 117.28 91.8926 115.014 93.5464 112.38C95.2194 109.745 96.3732 106.878 97.0463 103.76C97.7193 100.641 97.9501 97.6192 97.7385 94.6943C97.6809 94.21 97.8732 93.8419 98.3347 93.5707C98.7962 93.2996 99.2385 93.3577 99.7 93.7063C101.738 95.0816 103.315 96.6894 104.392 98.5296C105.469 100.35 106.142 102.326 106.411 104.418C106.834 107.808 106.334 111.372 104.892 115.13C103.45 118.888 101.392 122.375 98.7 125.629C96.0078 128.883 92.8926 131.673 89.3158 134.017C85.739 136.36 82.0468 137.852 78.2201 138.511C73.5856 139.266 69.5473 139.15 66.0859 138.142C62.6245 137.155 59.6631 135.489 57.2209 133.184C54.7787 130.879 52.8557 127.992 51.4327 124.564C50.0289 121.135 49.0481 117.28 48.5097 112.999C47.8174 107.518 47.8366 101.571 48.5289 95.1591C49.2404 88.7475 50.5288 82.3358 52.4134 75.9048C54.2979 69.4737 56.6825 63.1977 59.6054 57.0959C62.5092 50.9942 65.8359 45.4736 69.5858 40.5728C73.3356 35.6721 77.4316 31.5848 81.8738 28.3112C86.3159 25.0376 90.9696 23.0231 95.854 22.2289C98.3347 21.8414 100.488 21.9383 102.315 22.5775C104.142 23.1974 105.7 24.224 106.969 25.6187C108.238 27.0134 109.277 28.7374 110.065 30.7519C110.853 32.7858 111.392 35.0134 111.7 37.4348C112.18 41.3089 112.084 45.4929 111.411 49.9482C110.738 54.4228 109.584 58.5875 107.969 62.4422C106.354 66.297 104.373 69.5899 102.027 72.3018C99.6808 75.0137 97.027 76.6021 94.0656 77.067C90.7196 77.6675 88.2581 77.2413 86.7005 75.7885C85.1429 74.3551 84.2006 72.4181 83.8929 69.9967C83.6237 67.9047 83.7583 65.5609 84.2968 63.004C84.8352 60.4277 85.5659 58.0063 86.489 55.7206C87.4313 53.4349 88.4889 51.401 89.7004 49.6576C90.9119 47.9143 92.0465 46.752 93.1233 46.2096C93.6618 45.9385 93.9695 46.1128 94.0464 46.6745Z" fill="white"/>
</g>
<defs>
<clipPath id="clip0_46_2">
<rect width="160" height="160" rx="20" fill="white"/>
</clipPath>
</defs>
</svg>
