<svg width="160" height="160" viewBox="0 0 160 160" fill="none" xmlns="http://www.w3.org/2000/svg">
<path fill-rule="evenodd" clip-rule="evenodd" d="M122.18 105.036C122.309 110.215 105.412 111.13 101.239 111.329C91.8459 111.783 67.0685 114.104 55.7956 118.046C43.8043 122.242 39.1423 136.666 53.0519 141C48.4281 131.371 59.2195 124.901 67.3971 122.326C78.3414 118.876 94.6584 116.847 101.919 115.71C105.939 115.08 127.384 112.536 122.554 104.805C121.614 103.291 122.164 104.313 122.18 105.036Z" fill="#232938"/>
<path d="M54.3741 97.6813C54.6034 97.8043 54.7562 98.1116 54.8327 98.5958C54.9091 99.0799 54.8938 99.6563 54.7944 100.317C54.6951 100.978 54.4964 101.7 54.2136 102.484C53.9232 103.268 53.5563 103.99 53.1054 104.667C52.6545 105.343 52.089 105.927 51.4317 106.411C50.7668 106.895 50.0254 107.195 49.2077 107.295C48.9631 107.326 48.7338 107.349 48.5199 107.356C48.3059 107.372 48.1071 107.372 47.9161 107.364C47.213 108.878 46.3493 110.169 45.3252 111.222C44.3011 112.275 43.1089 112.897 41.7408 113.074C40.6785 113.212 39.7461 113.135 38.936 112.851C38.1259 112.567 37.438 112.136 36.8572 111.56C36.2764 110.984 35.8178 110.284 35.4815 109.454C35.1452 108.632 34.916 107.733 34.7937 106.749C34.595 105.197 34.6638 103.552 34.9848 101.823C35.3057 100.094 35.8484 98.4805 36.6203 96.9897C37.3845 95.4989 38.3704 94.2309 39.5627 93.1781C40.7549 92.1253 42.123 91.5028 43.6744 91.3107C44.5228 91.2031 45.2794 91.2953 45.9519 91.5797C46.6168 91.864 47.1977 92.2866 47.6792 92.8476C48.1683 93.4086 48.5504 94.0926 48.8408 94.9071C49.1313 95.7217 49.33 96.6055 49.4523 97.5507C49.5745 98.5266 49.6051 99.5564 49.5363 100.632C49.4675 101.708 49.3376 102.769 49.1313 103.821C49.6586 103.844 50.1172 103.691 50.5069 103.345C50.8967 102.999 51.233 102.576 51.5234 102.077C51.8138 101.577 52.0737 101.04 52.2953 100.471C52.5169 99.9022 52.7309 99.395 52.9373 98.9493C53.1436 98.5036 53.3576 98.1501 53.5869 97.8888C53.8238 97.6352 54.0837 97.5583 54.3741 97.6813ZM45.0883 94.0234C44.2705 94.131 43.5216 94.569 42.849 95.3528C42.1765 96.1367 41.6262 97.0665 41.1906 98.1424C40.7549 99.2182 40.4416 100.371 40.2582 101.585C40.0747 102.799 40.0365 103.883 40.1588 104.828C40.2734 105.712 40.518 106.419 40.9078 106.941C41.2976 107.464 41.8402 107.679 42.5357 107.595C42.9942 107.533 43.4222 107.387 43.8196 107.149C44.2247 106.911 44.5992 106.603 44.9507 106.211C44.3775 105.604 44.0336 104.797 43.9037 103.791C43.812 103.061 43.8349 102.3 43.9648 101.508C44.0948 100.717 44.3011 99.9483 44.5763 99.2029C44.8514 98.4575 45.1724 97.7812 45.5469 97.1741C45.9137 96.567 46.2958 96.0906 46.6856 95.7294C46.4946 95.1991 46.2729 94.7688 46.0131 94.446C45.7609 94.1156 45.4552 93.9773 45.0883 94.0234Z" fill="#232938"/>
<path d="M55.3906 88.1139C55.9638 88.037 56.4835 88.1062 56.942 88.3137C57.4006 88.5211 57.6299 88.8823 57.6375 89.4126C57.6528 90.0273 57.6069 90.7651 57.4999 91.6181C58.0655 91.2338 58.6693 90.8035 59.3036 90.3194C59.9379 89.8352 60.5417 89.4203 61.1073 89.0668C61.1378 89.0668 61.1608 89.0514 61.176 89.036C61.1913 89.0206 61.2143 89.0053 61.2448 89.0053C61.4894 88.9745 61.8792 89.0514 62.4294 89.2281C62.9721 89.4049 63.4 89.6124 63.7134 89.8583C64.1261 90.181 64.3783 90.7343 64.4777 91.5259C64.577 92.2866 64.5541 93.1858 64.4242 94.2078C64.2942 95.2299 64.1337 96.2827 63.9656 97.3585C63.7898 98.4344 63.637 99.4718 63.4994 100.463C63.3618 101.454 63.3389 102.307 63.423 103.007C63.4918 103.552 63.6599 103.975 63.9274 104.267C64.1949 104.559 64.5999 104.667 65.1502 104.598C65.4865 104.551 65.8075 104.275 66.1285 103.752C66.4495 103.23 66.7628 102.607 67.0762 101.893C67.3895 101.17 67.6799 100.409 67.9627 99.5948C68.2455 98.7879 68.5359 98.0502 68.8416 97.3893C69.1473 96.7284 69.453 96.2212 69.7587 95.8523C70.0644 95.4912 70.4007 95.3913 70.7599 95.5603C71.058 95.7063 71.2032 96.1597 71.2108 96.9205C71.2108 97.6813 71.0962 98.5881 70.8593 99.6409C70.6223 100.694 70.2708 101.823 69.8046 103.03C69.3384 104.236 68.7957 105.358 68.169 106.396C67.5423 107.433 66.8392 108.325 66.052 109.055C65.2648 109.792 64.4471 110.207 63.5988 110.323C61.7798 110.553 60.4576 110.238 59.6475 109.385C58.8298 108.532 58.333 107.402 58.1572 105.996C57.9967 104.744 58.0196 103.383 58.2183 101.9C58.4171 100.417 58.6616 99.0184 58.9597 97.6967C59.2577 96.3749 59.5176 95.2145 59.7469 94.2309C59.9761 93.2395 60.0602 92.6094 59.9914 92.3404C59.9914 92.3097 59.8309 92.3635 59.5252 92.4941C59.2195 92.6248 58.8909 92.7938 58.547 92.9936C58.2031 93.1934 57.8821 93.3779 57.5764 93.5546C57.2783 93.7314 57.1102 93.839 57.0872 93.8697C56.5981 95.3605 56.1625 96.7361 55.7803 98.0117C55.3982 99.2874 55.0619 100.371 54.7562 101.278C54.4505 102.185 54.1754 102.876 53.9308 103.36C53.6863 103.844 53.4111 104.021 53.1207 103.906C52.8303 103.791 52.6087 103.599 52.4482 103.337C52.2953 103.076 52.1883 102.769 52.1425 102.4C52.0737 101.885 52.1042 101.285 52.2189 100.625C52.3335 99.956 52.5017 99.2644 52.7233 98.542C52.9373 97.8196 53.1742 97.1126 53.4264 96.4287C53.6786 95.7448 53.9079 95.13 54.1142 94.5767C53.243 94.4998 52.7386 93.9465 52.6087 92.9091C52.5246 92.2713 52.5781 91.3337 52.7615 90.1042C52.8456 89.5663 53.1513 89.1282 53.6786 88.7824C54.2212 88.4059 54.7868 88.1907 55.3906 88.1139Z" fill="#232938"/>
<path d="M71.3637 86.0851C71.9369 86.0083 72.4566 86.0774 72.9151 86.2849C73.3737 86.4924 73.603 86.8536 73.6106 87.3838C73.6259 87.9986 73.58 88.7363 73.473 89.5893C74.0386 89.2051 74.6424 88.7748 75.2767 88.2906C75.911 87.8065 76.5148 87.3915 77.0804 87.038C77.1109 87.038 77.1339 87.0226 77.1491 87.0073C77.1644 86.9919 77.1874 86.9765 77.2179 86.9765C77.4625 86.9458 77.8523 87.0226 78.4025 87.1994C78.9452 87.3761 79.3731 87.5836 79.6865 87.8295C80.0992 88.1523 80.3514 88.7056 80.4508 89.4971C80.5501 90.2579 80.5272 91.157 80.3973 92.1791C80.2673 93.2011 80.1068 94.2539 79.9387 95.3298C79.7629 96.4057 79.6101 97.4431 79.4725 98.4344C79.3349 99.4257 79.312 100.279 79.3961 100.978C79.4649 101.524 79.633 101.946 79.9005 102.238C80.168 102.53 80.573 102.638 81.1233 102.569C81.4596 102.523 81.7806 102.246 82.1016 101.723C82.4226 101.201 82.7359 100.578 83.0493 99.8638C83.3626 99.1414 83.653 98.3806 83.9358 97.566C84.2186 96.7592 84.509 96.0214 84.8147 95.3605C85.1204 94.6997 85.4261 94.1925 85.7318 93.8236C86.0375 93.4624 86.3738 93.3625 86.733 93.5316C87.0311 93.6776 87.1763 94.131 87.1839 94.8918C87.1839 95.6526 87.0693 96.5593 86.8324 97.6122C86.5954 98.665 86.2439 99.7946 85.7777 101.001C85.3115 102.208 84.7688 103.33 84.1421 104.367C83.5154 105.404 82.8123 106.296 82.0251 107.026C81.2379 107.764 80.4202 108.179 79.5719 108.294C77.7529 108.524 76.4307 108.209 75.6206 107.356C74.8029 106.503 74.3061 105.374 74.1303 103.967C73.9698 102.715 73.9927 101.355 74.1914 99.8715C74.3902 98.3883 74.6347 96.9897 74.9328 95.6679C75.2308 94.3462 75.4907 93.1858 75.72 92.2021C75.9492 91.2108 76.0333 90.5807 75.9645 90.3117C75.9645 90.2809 75.804 90.3347 75.4983 90.4654C75.1926 90.596 74.864 90.7651 74.5201 90.9649C74.1762 91.1647 73.8552 91.3491 73.5495 91.5259C73.2514 91.7026 73.0833 91.8102 73.0603 91.8409C72.5712 93.3318 72.1356 94.7073 71.7534 95.983C71.3713 97.2587 71.035 98.3422 70.7293 99.249C70.4236 100.156 70.1485 100.847 69.9039 101.332C69.6594 101.816 69.3842 101.992 69.0938 101.877C68.8034 101.762 68.5818 101.57 68.4213 101.308C68.2684 101.047 68.1614 100.74 68.1156 100.371C68.0468 99.8561 68.0773 99.2567 68.192 98.5958C68.3066 97.9272 68.4748 97.2356 68.6964 96.5132C68.9104 95.7909 69.1473 95.0839 69.3995 94.4C69.6517 93.716 69.881 93.1012 70.0873 92.5479C69.2161 92.4711 68.7117 91.9178 68.5818 90.8804C68.4977 90.2425 68.5512 89.305 68.7346 88.0754C68.8187 87.5375 69.1244 87.0995 69.6517 86.7537C70.1867 86.3771 70.7523 86.1619 71.3637 86.0851Z" fill="#232938"/>
<path d="M102.844 91.6642C103.195 91.7718 103.386 92.2022 103.417 92.9399C103.447 93.6776 103.325 94.5691 103.035 95.6142C102.752 96.6593 102.301 97.789 101.682 99.0185C101.063 100.24 100.299 101.385 99.3892 102.446C98.4721 103.506 97.4097 104.436 96.2022 105.22C94.9947 106.012 93.6266 106.503 92.1134 106.696C90.8982 106.849 89.8283 106.772 88.8959 106.457C87.9635 106.142 87.1686 105.65 86.519 104.997C85.8617 104.336 85.3497 103.537 84.9675 102.592C84.5854 101.647 84.3332 100.648 84.1956 99.5795C84.0046 98.0579 84.0581 96.4518 84.3561 94.7689C84.6542 93.0859 85.1815 91.5336 85.9458 90.1042C86.7024 88.6749 87.6883 87.4607 88.8882 86.454C90.0881 85.4473 91.4867 84.8479 93.0993 84.6404C93.2522 84.6251 93.3821 84.6097 93.4891 84.6174C93.5961 84.6174 93.7107 84.6097 93.833 84.5943C94.9565 84.4483 95.8354 84.8249 96.4697 85.7009C97.104 86.5847 97.5015 87.6605 97.662 88.9439C97.7766 89.8583 97.7689 90.8112 97.6314 91.8026C97.4938 92.7939 97.2416 93.7084 96.8671 94.546C96.4926 95.3836 95.9882 96.0983 95.3539 96.69C94.7195 97.2818 93.9476 97.6353 93.0382 97.7505C92.3121 97.8427 91.6854 97.7659 91.1581 97.5277C90.6307 97.2818 90.1798 96.9744 89.79 96.5825C89.8435 97.228 89.9505 97.8274 90.134 98.373C90.3097 98.9263 90.5543 99.4027 90.8677 99.81C91.181 100.217 91.5631 100.517 92.0217 100.709C92.4802 100.901 93.0076 100.955 93.6114 100.878C94.796 100.725 95.7895 100.379 96.5996 99.8254C97.4097 99.2721 98.0899 98.6343 98.6479 97.9119C99.2058 97.1895 99.6643 96.4364 100.024 95.6449C100.39 94.8534 100.711 94.1464 101.002 93.5239C101.292 92.9015 101.575 92.402 101.858 92.0408C102.133 91.6796 102.462 91.5567 102.844 91.6642ZM94.047 86.7383C93.5044 86.8075 92.9847 87.0688 92.5032 87.5145C92.0217 87.9602 91.6013 88.5289 91.2345 89.2128C90.8753 89.8968 90.5696 90.6576 90.325 91.5106C90.0805 92.3636 89.92 93.2319 89.8435 94.108C90.646 94.3462 91.3874 94.2847 92.0828 93.9159C92.7783 93.547 93.3744 93.0321 93.8788 92.3636C94.3833 91.695 94.7501 90.9649 94.987 90.1811C95.224 89.3896 95.2927 88.7056 95.1934 88.137C95.1017 87.6836 94.9794 87.3454 94.8112 87.1149C94.6431 86.892 94.4673 86.7537 94.2763 86.7153L94.047 86.7383Z" fill="#232938"/>
<path d="M107.238 82.4579C107.475 82.3965 107.727 82.3427 107.98 82.2966C108.232 82.2505 108.484 82.212 108.729 82.1813C110.15 81.9969 111.403 82.1121 112.466 82.5194C113.536 82.9267 114.147 83.7413 114.3 84.9555C114.369 85.478 114.331 86.0774 114.201 86.7537C114.071 87.4376 113.796 88.2061 113.383 89.0668C113.146 89.6278 112.833 90.0888 112.45 90.4654C112.068 90.8419 111.602 91.0648 111.052 91.134C110.532 91.2031 110.005 91.1109 109.447 90.8727C109.256 90.8343 109.095 90.7344 108.965 90.5653C108.835 90.3962 108.79 90.2195 108.828 90.0274C108.843 89.9352 108.927 89.8583 109.08 89.8122C109.225 89.7661 109.325 89.7046 109.378 89.6355C109.951 89.0668 110.333 88.5212 110.517 88.0063C110.7 87.4914 110.761 87.0303 110.716 86.6307C110.662 86.2311 110.555 85.9314 110.395 85.7163C110.226 85.5011 110.066 85.3781 109.905 85.3397C109.653 85.309 109.455 85.3013 109.302 85.3243C109.034 85.3935 108.721 85.5318 108.362 85.747C108.002 85.9622 107.666 86.2465 107.36 86.5923C107.047 86.9381 106.787 87.3685 106.573 87.8757C106.359 88.3828 106.245 88.9592 106.237 89.6124C106.214 90.1734 106.375 90.6882 106.711 91.157C107.047 91.6258 107.467 92.0869 107.972 92.5326C108.476 92.9783 109.011 93.4471 109.577 93.9312C110.15 94.4153 110.654 94.984 111.105 95.6449C111.923 96.7822 112.405 97.8965 112.542 98.9954C112.726 100.456 112.366 101.716 111.465 102.761C110.563 103.806 109.34 104.459 107.804 104.713C106.78 104.874 105.916 104.913 105.228 104.828C104.54 104.744 103.883 104.329 103.264 103.568C102.897 103.091 102.668 102.515 102.584 101.839C102.515 101.324 102.538 100.817 102.645 100.317C102.752 99.8254 102.897 99.395 103.081 99.0261C103.264 98.665 103.463 98.396 103.677 98.2269C103.891 98.0579 104.082 98.0579 104.258 98.2269C104.441 98.4498 104.548 98.6573 104.586 98.834C104.624 99.0185 104.64 99.1875 104.624 99.3412C104.617 99.4949 104.601 99.6793 104.601 99.8791C104.594 100.079 104.655 100.317 104.785 100.578C104.922 100.932 105.098 101.186 105.32 101.324C105.542 101.47 105.771 101.539 106.015 101.539C106.26 101.539 106.504 101.485 106.734 101.378C106.963 101.27 107.162 101.132 107.33 100.955C107.597 100.64 107.704 100.302 107.643 99.9406C107.582 99.5794 107.414 99.2183 107.139 98.8648C106.864 98.5113 106.527 98.1578 106.13 97.8043C105.733 97.4508 105.32 97.1357 104.9 96.8437C104.479 96.5594 104.097 96.3135 103.768 96.106C103.432 95.8985 103.211 95.7448 103.111 95.6295C102.316 94.9225 101.697 94.1771 101.254 93.3779C100.818 92.5787 100.543 91.7718 100.444 90.9495C100.329 90.0351 100.398 89.1359 100.658 88.2522C100.918 87.3685 101.346 86.5385 101.942 85.7624C102.538 84.9862 103.287 84.3176 104.189 83.7567C105.083 83.188 106.099 82.7576 107.238 82.4579Z" fill="#232938"/>
<path d="M27.4109 89.0053C34.4574 88.2369 42.421 87.599 49.4981 83.7106C60.9238 77.4322 53.4417 67.9031 48.8791 69.6399C47.8397 70.0318 48.1836 70.0164 48.7873 70.3776C52.4787 72.5985 50.7515 77.6243 47.1595 80.1372C43.491 82.7039 37.5374 84.6635 32.3328 85.1476C-11.6429 89.2436 3.91746 127.39 14.8923 115.08C15.6336 114.242 15.3661 114.588 14.5101 114.28C6.10325 111.306 6.33252 92.9168 20.4026 90.012C21.5337 89.7815 22.7183 89.5894 23.9488 89.4203C21.1592 92.6863 22.3821 99.0953 22.5196 103.184C22.726 109.178 24.1016 128.013 16.4055 129.873C19.6154 134.138 25.1487 129.473 26.5396 125.193C28.7713 118.33 26.8606 107.748 26.6466 102.546C26.5779 100.886 24.6137 92.5787 27.4109 89.0053Z" fill="#232938"/>
<path d="M53.2353 74.8348C53.0366 74.1047 52.6621 73.4054 52.1577 72.8367C52.9144 76.4178 50.27 80.0296 47.3658 81.7971C44.7444 83.3878 41.3969 84.5482 38.0341 85.2629C41.3893 84.7634 44.6832 83.9411 47.8473 82.458C50.7209 81.1131 54.2289 78.5004 53.2353 74.8348Z" fill="white"/>
<path d="M6.29431 111.867C7.34135 114.311 9.55007 117.346 12.3855 115.379C6.11089 112.959 5.44598 102.569 9.16794 96.0445C6.17203 99.3797 4.08559 106.695 6.29431 111.867Z" fill="white"/>
<path d="M35.7032 40.9913C35.6573 41.3909 35.535 41.998 35.3516 42.8202C35.1605 43.6425 35.023 44.4648 34.9313 45.287C34.8395 46.1093 34.8319 46.824 34.9083 47.4157C34.9848 48.0074 35.2446 48.2764 35.6879 48.2226C36.0394 48.1765 36.4063 47.823 36.7884 47.1544C37.1705 46.4858 37.5068 45.6789 37.7972 44.7337C38.08 43.7885 38.3017 42.7972 38.4469 41.7751C38.5921 40.7454 38.615 39.8309 38.5156 39.0317C38.4316 38.3554 38.2405 37.8329 37.9501 37.4409C37.6597 37.0567 37.2317 36.9184 36.6585 37.0183C35.4509 37.2027 34.2893 37.8329 33.1582 38.901C32.0271 39.9692 30.98 41.314 30.0018 42.9355C29.0235 44.557 28.1446 46.3706 27.3574 48.3686C26.5702 50.3743 25.9282 52.4107 25.4315 54.4933C24.9347 56.5758 24.5908 58.6046 24.3997 60.5796C24.2086 62.5545 24.2163 64.3297 24.415 65.8974C24.5296 66.7965 24.7054 67.5957 24.9576 68.295C25.2098 68.9943 25.5308 69.586 25.9359 70.0779C26.3333 70.562 26.8071 70.9078 27.3498 71.1153C27.8924 71.3228 28.5267 71.3612 29.2604 71.2382C30.6896 71.0231 31.9201 70.5313 32.9595 69.7705C33.9989 69.002 34.8472 68.1029 35.5044 67.0578C36.1694 66.0126 36.6279 64.8753 36.8954 63.6381C37.1629 62.4008 37.2546 61.202 37.1705 60.0416C37.1476 59.8495 37.224 59.7035 37.4075 59.5959C37.5909 59.4883 37.7667 59.5114 37.9501 59.6497C38.7602 60.1953 39.3869 60.8332 39.8149 61.5632C40.2429 62.2856 40.5104 63.0694 40.6174 63.8994C40.7855 65.2442 40.5868 66.6582 40.0136 68.149C39.4404 69.6398 38.6226 71.0231 37.5527 72.3141C36.4827 73.6051 35.2446 74.7117 33.8231 75.6416C32.4015 76.5714 30.9342 77.1631 29.4133 77.4244C27.5714 77.7241 25.9664 77.678 24.5908 77.2784C23.2151 76.8865 22.0381 76.2256 21.0675 75.3111C20.0969 74.3967 19.3326 73.2516 18.7671 71.8914C18.2092 70.5313 17.8194 69.002 17.6054 67.3037C17.3303 65.1289 17.3379 62.7697 17.6131 60.2261C17.8958 57.6824 18.4079 55.1388 19.1569 52.5875C19.9058 50.0362 20.8535 47.5463 22.0152 45.1256C23.1692 42.705 24.4914 40.5148 25.9817 38.5706C27.472 36.6264 29.0999 35.0049 30.8654 33.7062C32.6308 32.4075 34.4803 31.6083 36.4216 31.2932C37.4075 31.1395 38.2634 31.1779 38.9895 31.4315C39.7155 31.6774 40.3346 32.0847 40.839 32.638C41.3434 33.1913 41.7561 33.8752 42.0695 34.6745C42.3828 35.4813 42.5968 36.3651 42.7191 37.3257C42.9102 38.8626 42.8719 40.5225 42.6045 42.29C42.337 44.0652 41.8784 45.7174 41.2364 47.2466C40.5944 48.7759 39.8072 50.0823 38.8748 51.1581C37.9424 52.234 36.8878 52.8641 35.7108 53.0486C34.381 53.2868 33.4027 53.1177 32.7837 52.5414C32.1646 51.9727 31.7901 51.2042 31.6678 50.2437C31.5609 49.4137 31.6143 48.4839 31.8283 47.4695C32.0423 46.4474 32.3328 45.4868 32.6996 44.58C33.0741 43.6732 33.4944 42.8663 33.9759 42.1747C34.4574 41.4831 34.9083 41.022 35.3363 40.8068C35.5503 40.6993 35.6726 40.7684 35.7032 40.9913Z" fill="#232938"/>
<path d="M64.684 49.1524C64.9974 49.2062 65.1961 49.5981 65.2725 50.3359C65.3489 51.0736 65.3107 51.9727 65.1502 53.0486C64.9897 54.1244 64.7069 55.3002 64.3019 56.5758C63.8892 57.8515 63.3618 59.0503 62.7199 60.1723C62.0779 61.2942 61.2983 62.2472 60.3965 63.0464C59.4947 63.8456 58.4858 64.3143 57.3624 64.4527C56.5446 64.5602 55.788 64.4066 55.0849 63.9993C54.3894 63.592 53.8162 62.9541 53.3653 62.0781C52.7691 62.9618 52.0889 63.7303 51.317 64.3835C50.5528 65.0367 49.6968 65.4286 48.7568 65.5439C47.6944 65.6822 46.762 65.6207 45.9596 65.3671C45.1571 65.1135 44.4845 64.7139 43.9343 64.1606C43.3916 63.615 42.9484 62.9465 42.6197 62.1703C42.2911 61.3941 42.0695 60.5335 41.9472 59.5882C41.7485 58.0052 41.8249 56.2992 42.1841 54.4779C42.5433 52.6566 43.1394 50.9506 43.9878 49.3599C44.8361 47.7692 45.8908 46.409 47.1518 45.2947C48.4128 44.1727 49.8497 43.5119 51.4546 43.312C52.5475 43.1737 53.4493 43.4273 54.1601 44.0652C54.8709 44.7107 55.4441 45.4945 55.8644 46.4167C56.2083 46.1861 56.5905 46.0478 57.0108 45.994C57.5229 45.9248 57.9126 46.0401 58.1648 46.3321C58.417 46.6242 58.5775 47.0161 58.6387 47.5002C58.6922 47.9306 58.6845 48.384 58.6234 48.8758C58.5623 49.3676 58.4629 49.8517 58.3177 50.3282C58.1801 50.8123 58.012 51.2657 57.8209 51.6961C57.6299 52.1264 57.4388 52.4568 57.2554 52.6951C57.2172 52.8872 57.1942 53.3022 57.1789 53.94C57.1637 54.5778 57.2019 55.2464 57.2936 55.9457C57.3853 56.6757 57.5687 57.3213 57.8362 57.8746C58.1037 58.4279 58.5164 58.6738 59.059 58.6046C59.3342 58.5662 59.6322 58.3049 59.9532 57.8208C60.2742 57.3289 60.6028 56.7295 60.9315 56.0225C61.2601 55.3156 61.5887 54.5548 61.9174 53.7402C62.246 52.9256 62.5746 52.1725 62.9033 51.4732C63.2319 50.7816 63.5453 50.2129 63.8433 49.7749C64.1567 49.3292 64.4318 49.1217 64.684 49.1524ZM49.6051 59.7573C50.1477 59.6881 50.6598 59.4653 51.1413 59.0964C51.6151 58.7276 52.0354 58.2665 52.4023 57.7285C52.3717 56.9908 52.4023 56.1686 52.4864 55.2771C52.5704 54.3857 52.708 53.4943 52.8914 52.6029C53.0748 51.7114 53.3041 50.8507 53.5869 50.0285C53.8697 49.2062 54.1983 48.4839 54.5881 47.8768C54.4658 47.4003 54.2747 46.993 54.0225 46.6703C53.7627 46.3475 53.4264 46.2092 52.9984 46.263C52.1195 46.3782 51.3247 46.847 50.6139 47.6846C49.9032 48.5223 49.2994 49.4982 48.8103 50.6356C48.3211 51.7652 47.9619 52.9487 47.7326 54.1859C47.5034 55.4231 47.4499 56.5144 47.5645 57.4596C47.6562 58.1896 47.8702 58.7737 48.1988 59.2117C48.5351 59.6574 49.0013 59.8342 49.6051 59.7573Z" fill="#232938"/>
<path d="M66.0444 40.1075C66.6176 40.0307 67.1373 40.0998 67.5958 40.3073C68.0544 40.5148 68.2837 40.876 68.2913 41.4062C68.3066 42.021 68.2608 42.7587 68.1538 43.6117C68.7193 43.2275 69.3231 42.7971 69.9574 42.313C70.5918 41.8289 71.1955 41.4139 71.7611 41.0604C71.7917 41.0604 71.8146 41.045 71.8299 41.0297C71.8452 41.0143 71.8681 40.9989 71.8987 40.9989C72.1432 40.9682 72.533 41.045 73.0833 41.2218C73.6259 41.3985 74.0539 41.606 74.3672 41.8519C74.7799 42.1747 75.0321 42.728 75.1315 43.5195C75.2308 44.2803 75.2079 45.1717 75.078 46.2015C74.9481 47.2235 74.7876 48.2763 74.6194 49.3522C74.4436 50.428 74.2908 51.4655 74.1532 52.4568C74.0157 53.4481 73.9927 54.3011 74.0768 55.0004C74.1456 55.5461 74.3137 55.9687 74.5812 56.2607C74.8487 56.5527 75.2538 56.6603 75.804 56.5912C76.1403 56.5451 76.4613 56.2684 76.7823 55.7459C77.1033 55.2233 77.4166 54.6008 77.73 53.8862C78.0433 53.1638 78.3337 52.403 78.6165 51.5884C78.8993 50.7815 79.1897 50.0438 79.4954 49.3829C79.8011 48.722 80.1068 48.2149 80.4125 47.846C80.7182 47.4848 81.0545 47.3849 81.4137 47.554C81.7118 47.7 81.857 48.1534 81.8646 48.9142C81.8646 49.6749 81.75 50.5817 81.5131 51.6345C81.2762 52.6874 80.9246 53.817 80.4584 55.0235C79.9922 56.23 79.4496 57.352 78.8229 58.3894C78.1962 59.4268 77.4931 60.3183 76.7059 61.0483C75.9187 61.786 75.1009 62.201 74.2526 62.3163C72.4336 62.5468 71.1115 62.2317 70.3013 61.3787C69.4836 60.5257 68.9868 59.3961 68.811 57.9898C68.6505 56.7372 68.6735 55.377 68.8722 53.8938C69.0709 52.4107 69.3154 51.0121 69.6135 49.6903C69.9116 48.3685 70.1714 47.2082 70.4007 46.2245C70.63 45.2332 70.714 44.6031 70.6453 44.3341C70.6453 44.3033 70.4848 44.3571 70.1791 44.4878C69.8734 44.6184 69.5447 44.7875 69.2008 44.9873C68.8569 45.1871 68.5359 45.3715 68.2302 45.5483C67.9321 45.725 67.764 45.8326 67.7411 45.8633C67.2519 47.3542 66.8163 48.7297 66.4342 50.0054C66.052 51.281 65.7158 52.3646 65.4101 53.2714C65.1044 54.1782 64.8292 54.8698 64.5847 55.3539C64.3401 55.8381 64.065 56.0148 63.7745 55.8996C63.4841 55.7843 63.2548 55.5922 63.102 55.3309C62.9491 55.0696 62.8421 54.7622 62.7963 54.3934C62.7275 53.8785 62.7581 53.2868 62.8727 52.6182C62.9873 51.9496 63.1555 51.258 63.3771 50.5356C63.5911 49.8133 63.828 49.1063 64.0802 48.4223C64.3324 47.7384 64.5617 47.1236 64.7681 46.5703C63.8968 46.4935 63.3924 45.9402 63.2625 44.9028C63.1784 44.2649 63.2319 43.3274 63.4153 42.0978C63.4994 41.5599 63.8051 41.1219 64.3324 40.7761C64.8674 40.3918 65.433 40.1843 66.0444 40.1075Z" fill="#232938"/>
<path d="M97.9676 45.4868C98.1969 45.6098 98.3498 45.9172 98.4262 46.4013C98.5026 46.8855 98.4873 47.4618 98.388 48.1227C98.2886 48.7836 98.0899 49.5059 97.8071 50.2898C97.5167 51.0736 97.1499 51.796 96.699 52.4722C96.2481 53.1485 95.6825 53.7325 95.0252 54.2167C94.3603 54.7008 93.619 55.0005 92.8012 55.1004C92.5567 55.1311 92.3274 55.1542 92.1134 55.1619C91.8994 55.1773 91.7007 55.1773 91.5096 55.1696C90.8065 56.6835 89.9429 57.9745 88.9188 59.0273C87.8947 60.0801 86.7024 60.7026 85.3344 60.8793C84.2721 61.0176 83.3397 60.9408 82.5295 60.6564C81.7271 60.3721 81.0316 59.9418 80.4507 59.3654C79.8699 58.7891 79.4113 58.0898 79.0751 57.2598C78.7388 56.4375 78.5095 55.5384 78.3872 54.5548C78.1885 53.0025 78.2573 51.358 78.5783 49.6289C78.8993 47.8998 79.4419 46.2861 80.2138 44.7952C80.9781 43.3044 81.964 42.0364 83.1562 40.9836C84.3485 39.9308 85.7165 39.3083 87.268 39.1162C88.1163 39.0086 88.8729 39.1009 89.5455 39.3852C90.2104 39.6695 90.7912 40.0922 91.2727 40.6532C91.7618 41.2142 92.144 41.8981 92.4344 42.7127C92.7248 43.5272 92.9235 44.411 93.0458 45.3562C93.1681 46.3322 93.1986 47.3619 93.1299 48.4378C93.0611 49.5136 92.9312 50.5741 92.7248 51.6269C93.2521 51.65 93.7107 51.4963 94.1005 51.1505C94.4902 50.8047 94.8265 50.382 95.1169 49.8825C95.4074 49.383 95.6672 48.8451 95.8889 48.2764C96.1105 47.7077 96.3245 47.2005 96.5308 46.7548C96.7372 46.3091 96.9512 45.9556 97.1804 45.6943C97.4097 45.4407 97.6696 45.3716 97.9676 45.4868ZM88.6742 41.8289C87.8564 41.9365 87.1075 42.3745 86.4349 43.1584C85.7624 43.9422 85.2121 44.8721 84.7765 45.9479C84.3408 47.0238 84.0275 48.1765 83.8441 49.3907C83.6606 50.6049 83.6224 51.6884 83.7447 52.6336C83.8594 53.5174 84.1039 54.2244 84.4937 54.7469C84.8835 55.2695 85.4261 55.4846 86.1216 55.4001C86.5801 55.3386 87.0005 55.1926 87.4055 54.9544C87.8106 54.7162 88.1851 54.4088 88.5366 54.0245C87.9634 53.4175 87.6195 52.6106 87.4896 51.6039C87.3979 50.8738 87.4208 50.113 87.5507 49.3215C87.6807 48.53 87.887 47.7615 88.1621 47.0161C88.4373 46.2707 88.7583 45.5944 89.1328 44.9873C89.4996 44.3803 89.8817 43.9038 90.2715 43.5426C90.0805 43.0124 89.8588 42.582 89.599 42.2593C89.3544 41.9288 89.0411 41.7828 88.6742 41.8289Z" fill="#232938"/>
<path d="M102.729 44.0421C102.523 44.6261 102.37 45.2025 102.255 45.7788C102.163 46.286 102.087 46.8393 102.026 47.4311C101.965 48.0305 101.965 48.6145 102.041 49.1985C102.079 49.5059 102.133 49.7826 102.194 50.0362C102.255 50.2898 102.362 50.5357 102.515 50.7585C102.828 51.3041 103.233 51.55 103.715 51.4886C104.021 51.4501 104.326 51.2888 104.647 50.9967C104.968 50.7124 105.274 50.3589 105.58 49.9516C105.885 49.5443 106.176 49.0909 106.451 48.6068C106.726 48.1227 106.963 47.6539 107.154 47.1928C107.628 46.0478 108.117 45.1718 108.629 44.5647C109.141 43.9576 109.562 43.6348 109.89 43.5887C110.165 43.5503 110.364 43.6963 110.502 44.019C110.631 44.3418 110.67 44.849 110.601 45.5406C110.54 46.0478 110.379 46.7087 110.112 47.531C109.844 48.3532 109.493 49.2446 109.057 50.1975C108.621 51.1504 108.117 52.1187 107.551 53.11C106.978 54.0937 106.382 54.9928 105.74 55.7997C105.106 56.6066 104.449 57.2905 103.776 57.8361C103.103 58.3817 102.454 58.7045 101.812 58.7814C101.086 58.8736 100.429 58.8659 99.8401 58.7506C99.2592 58.6353 98.7395 58.3587 98.3039 57.8976C97.8606 57.4442 97.4785 56.7756 97.1499 55.9073C96.8289 55.0312 96.569 53.8785 96.3933 52.4492C96.2328 51.1966 96.2251 49.7134 96.3627 47.992C96.5002 46.2707 96.7525 44.4801 97.1193 42.6204C97.4861 40.7607 97.96 38.901 98.5485 37.049C99.1293 35.197 99.7866 33.5217 100.505 32.0386C101.223 30.5555 102.011 29.3259 102.859 28.3499C103.707 27.374 104.601 26.8284 105.541 26.7054C106.145 26.6286 106.703 26.7285 107.2 27.0051C107.529 27.1819 107.773 27.4201 107.934 27.7275C108.094 28.0349 108.201 28.396 108.255 28.8264C108.331 29.4027 108.3 30.0713 108.178 30.809C108.056 31.5545 107.872 32.3383 107.62 33.1606C107.368 33.9828 107.078 34.8281 106.734 35.6888C106.397 36.5495 106.046 37.3795 105.679 38.171C104.846 40.0845 103.86 42.0441 102.729 44.0421Z" fill="#232938"/>
<path fill-rule="evenodd" clip-rule="evenodd" d="M82.6824 47.7385C80.5807 51.9497 80.7259 59.5498 87.161 57.2905C81.2379 61.2328 78.051 53.917 82.6824 47.7385Z" fill="white"/>
<path d="M117.914 103.802C119.458 104.396 121.184 103.609 121.769 102.044C121.777 102.021 121.777 102.005 121.792 101.982C121.792 101.982 129.609 81.1705 130.331 79.2428C132.293 69.0799 135.6 66.3117 135.6 66.3117L136.376 64.2529L135.266 63.821C136.733 60.4437 140.687 55.6398 144.884 50.5429C149.933 44.4282 155.149 38.0975 156.396 33.6869C157.742 28.9138 156.586 25.737 155.385 23.9172C154.351 22.3596 152.868 21.1644 151.226 20.5321C150.61 20.2931 149.971 20.1311 149.325 20.0617L148.412 19.9615C148.131 19.815 147.842 19.6762 147.545 19.5605C145.903 18.9282 144.017 18.8203 142.223 19.2907C140.124 19.8381 137.182 21.4343 135.053 25.8989C133.083 30.0319 132.833 38.2749 132.597 46.2556C132.399 52.648 132.209 58.6779 131.19 62.2557L130.285 61.901L129.51 63.9598C129.51 63.9598 129.882 69.9898 124.78 77.0375C124.157 78.7031 116.219 99.8309 116.219 99.8309L116.226 99.8386C116.219 99.854 116.204 99.8772 116.204 99.8926C115.603 101.45 116.378 103.208 117.914 103.802ZM154.373 24.5958C155.438 26.2073 156.457 29.0372 155.233 33.3553C154.054 37.5192 148.922 43.7496 143.957 49.7641C142.938 50.9978 141.934 52.2239 140.968 53.4113C146.238 45.2686 152.701 35.1982 153.393 33.6946C155.484 28.6517 152.83 24.0791 151.035 21.7813C152.351 22.3519 153.545 23.3466 154.373 24.5958ZM150.207 22.6757C151.834 24.7962 154.1 28.8213 152.29 33.2011C151.75 34.3732 147.249 41.4518 142.732 48.4532C146.572 41.205 150.351 33.9413 150.967 32.3066C151.788 30.1167 151.134 25.5827 150.207 22.6757ZM149.849 31.8748C149.15 33.7332 144.048 43.4412 139.63 51.7381C145.166 38.7838 145.994 36.378 146.861 33.8642C147.142 33.0469 147.424 32.2218 147.88 31.0035C149.081 27.8035 149.18 25.0815 149.104 23.2078C149.849 25.6907 150.648 29.7389 149.849 31.8748ZM144.839 23.2078C143.371 24.2873 140.778 26.4232 139.995 28.5206C139.379 30.1553 137.44 38.1284 135.555 46.1323C136.779 37.8662 138.049 29.5539 138.414 28.3201C139.934 23.8092 144.291 22.3287 146.892 21.8353C145.972 22.3904 145.135 22.9919 144.839 23.2078ZM147.363 22.9919C146.078 24.3413 144.367 26.4464 143.166 29.6387C142.71 30.857 142.375 31.6589 142.056 32.4609C141.052 34.9283 140.086 37.2802 135.722 50.6894C137.866 41.5134 140.421 30.8184 141.12 28.9601C141.919 26.8242 145.166 24.3336 147.363 22.9919ZM133.775 46.2865C134.011 38.4368 134.262 30.3249 136.117 26.4232C138.041 22.375 140.649 20.9485 142.504 20.4627C143.949 20.0849 145.492 20.1466 146.846 20.6092C144.002 21.1181 139.014 22.7528 137.265 27.9423C136.802 29.523 135.022 41.3901 133.623 51.021C133.684 49.4942 133.73 47.9058 133.775 46.2865ZM133.19 62.4562C140.763 38.8069 141.934 35.9462 143.166 32.9235C143.5 32.1139 143.835 31.2965 144.291 30.0628C145.318 27.3331 146.747 25.4517 147.91 24.1794C147.903 25.868 147.69 28.0657 146.747 30.564C146.283 31.79 146.002 32.6305 145.713 33.4556C144.656 36.5399 143.645 39.4701 133.791 62.2326C133.562 62.5873 133.38 62.8572 133.258 63.05L133.114 62.996C133.137 62.8341 133.16 62.6644 133.19 62.4562ZM117.42 99.962C117.747 99.0829 119.58 96.3687 120.439 96.7003C121.306 97.0318 120.88 100.294 120.553 101.173C120.226 102.052 119.253 102.491 118.393 102.16C117.527 101.82 117.093 100.841 117.42 99.962Z" fill="#232938"/>
</svg>
