<svg width="25" height="25" viewBox="0 0 25 25" fill="none" xmlns="http://www.w3.org/2000/svg">
<g clip-path="url(#clip0_40_2)">
<path d="M15.3384 12.2705C15.3384 9.11675 15.9183 6.35314 16.881 4.3813C11.222 7.63304 6.25952 7.84071 3.76971 7.99073C2.36974 8.07505 1.08063 8.98614 0.410375 10.4128C-0.135946 11.5758 -0.132719 12.9467 0.395141 14.1179C1.06032 15.5942 2.35694 16.5623 3.76966 16.5501C4.00357 16.5481 4.28361 16.5516 4.59506 16.5622C4.09069 18.832 5.39085 21.2333 7.72922 22.2467C8.44386 22.5564 9.19732 22.7121 9.94428 22.7121C10.5264 22.7121 11.1047 22.6175 11.6571 22.4267C12.9345 21.9863 13.922 21.088 14.4375 19.8984C14.5575 19.6217 14.6389 19.3318 14.701 19.0377C15.4169 19.3685 16.1459 19.7409 16.8831 20.1636C15.9192 18.1915 15.3384 15.4265 15.3384 12.2705ZM13.4819 19.4843C13.0839 20.4024 12.3154 21.0976 11.3174 21.442C10.303 21.7919 9.17537 21.738 8.14335 21.2904C6.20837 20.4521 5.14943 18.4571 5.65031 16.6247C7.63866 16.786 10.5107 17.27 13.7285 18.6099C13.6846 18.9106 13.6031 19.2046 13.4819 19.4843Z" fill="black"/>
<path d="M20.69 2.28796C18.9674 2.28796 17.4851 4.63437 16.7951 8.01751C19.0955 8.07231 20.951 9.95714 20.951 12.2705C20.951 14.5839 19.0954 16.4682 16.795 16.523C17.485 19.9063 18.9672 22.2528 20.69 22.2528C23.0704 22.2528 25 17.7835 25 12.2704C25 6.75729 23.0704 2.28796 20.69 2.28796Z" fill="black"/>
</g>
<defs>
<clipPath id="clip0_40_2">
<rect width="25" height="25" fill="white"/>
</clipPath>
</defs>
</svg>
