<svg width="36" height="30" viewBox="0 0 36 30" fill="none" xmlns="http://www.w3.org/2000/svg">
<path d="M8.67209 22.2256C7.36141 22.1587 7.38609 20.3152 8.67203 20.2511C12.3147 20.2638 21.9225 20.2545 25.681 20.2572C26.709 20.2572 27.5885 19.5576 27.8197 18.5561L29.9539 9.31437C30.0761 8.78522 29.9527 8.23755 29.6155 7.81187C29.2783 7.3862 28.7735 7.13862 28.2305 7.13862C26.7185 7.13862 13.884 7.08053 7.31023 7.05432L6.26817 3.18783C6.01802 2.26385 5.17482 1.61856 4.21759 1.61856H0.879373C0.393725 1.61856 0 2.01229 0 2.49793C0 2.98358 0.393725 3.37731 0.879373 3.37731H4.21759C4.38239 3.37731 4.52748 3.4884 4.57034 3.64651L8.57236 18.4948C7.86869 18.5204 7.21326 18.8066 6.71624 19.3109C6.19401 19.8408 5.91355 20.5423 5.92651 21.2862C5.95242 22.7739 7.18407 23.9843 8.67209 23.9843H9.95433C9.76374 24.3844 9.65675 24.8316 9.65675 25.3034C9.65675 27.0006 11.0375 28.3814 12.7347 28.3814C14.4319 28.3814 15.8126 27.0006 15.8126 25.3034C15.8126 24.8316 15.7055 24.3844 15.515 23.9843H21.0677C20.8773 24.3843 20.7703 24.8313 20.7703 25.303C20.7703 27.0002 22.1511 28.3809 23.8482 28.3809C25.5454 28.3809 26.9262 27.0001 26.9262 25.303C26.9262 24.8129 26.8104 24.3496 26.6058 23.9379C26.9538 23.8207 27.2048 23.4925 27.2048 23.105C27.2048 22.6194 26.811 22.2256 26.3254 22.2256H8.67209ZM14.0538 25.3035C14.0538 26.0309 13.462 26.6227 12.7346 26.6227C12.0072 26.6227 11.4154 26.0309 11.4154 25.3035C11.4154 24.5765 12.0066 23.985 12.7335 23.9844H12.7357C13.4626 23.985 14.0538 24.5765 14.0538 25.3035ZM23.8483 26.6222C23.1209 26.6222 22.5291 26.0304 22.5291 25.303C22.5291 24.5828 23.1093 23.9959 23.8269 23.9844H23.8697C24.5873 23.9959 25.1675 24.5828 25.1675 25.303C25.1675 26.0304 24.5757 26.6222 23.8483 26.6222ZM28.2369 8.90382C28.2421 8.91039 28.2414 8.91349 28.2402 8.91854L27.341 12.8127H24.2959L24.8144 8.88348L28.2234 8.8972C28.2286 8.89731 28.2318 8.89731 28.2369 8.90382ZM19.1709 18.4984V14.5714H22.2898L21.7716 18.4984H19.1709ZM14.8102 18.4984L14.2878 14.5714H17.4121V18.4984H14.8102ZM10.762 18.4984H10.7592C10.5449 18.4983 10.3561 18.3537 10.3003 18.1478L9.33642 14.5714H12.5135L13.0359 18.4984H10.762ZM14.0537 12.8128L13.5249 8.83804L17.4121 8.8537V12.8128H14.0537ZM19.1709 12.8128V8.86079L23.0414 8.87638L22.5219 12.8128H19.1709ZM11.7497 8.83083L12.2795 12.8127H8.86238L7.78486 8.81483L11.7497 8.83083ZM25.681 18.4984H23.5455L24.0638 14.5714H26.9348L26.106 18.1603C26.06 18.3594 25.8853 18.4984 25.681 18.4984Z" fill="#232938"/>
</svg>
