<svg width="512" height="512" viewBox="0 0 512 512" fill="none" xmlns="http://www.w3.org/2000/svg">
<path d="M426.72 160H85.28C73.92 160 64.96 169.76 66.08 181.12L92.16 455.68C94.4 478.56 113.6 496 136.48 496H375.52C398.402 496 417.6 478.56 419.84 455.68L445.92 181.12C447.04 169.76 438.08 160 426.72 160V160ZM192 368C192 376.8 184.8 384 176 384C167.2 384 160 376.8 160 368V272C160 263.2 167.2 256 176 256C184.8 256 192 263.2 192 272V368ZM272 368C272 376.8 264.8 384 256 384C247.2 384 240 376.8 240 368V272C240 263.2 247.2 256 256 256C264.8 256 272 263.2 272 272V368ZM352 368C352 376.8 344.8 384 336 384C327.2 384 320 376.8 320 368V272C320 263.2 327.2 256 336 256C344.8 256 352 263.2 352 272V368Z" fill="#232938"/>
<path d="M360.763 51.0528L355.237 28.9472C353.334 21.3376 346.498 16 338.654 16H173.346C165.502 16 158.666 21.3376 156.763 28.9472L151.237 51.0528C149.334 58.6624 142.498 64 134.654 64H49.0928C39.6528 64 32 71.6528 32 81.0928V110.907C32 120.347 39.6528 128 49.0928 128H462.907C472.347 128 480 120.347 480 110.907V81.0928C480 71.6528 472.347 64 462.907 64H377.346C369.502 64 362.666 58.6624 360.763 51.0528V51.0528Z" fill="#232938"/>
</svg>
