<svg width="25" height="25" viewBox="0 0 25 25" fill="none" xmlns="http://www.w3.org/2000/svg">
<g clip-path="url(#clip0_7_2945)">
<path d="M10.9375 25C11.8004 25 12.5 24.3004 12.5 23.4375C12.5 22.5746 11.8004 21.875 10.9375 21.875C10.0746 21.875 9.375 22.5746 9.375 23.4375C9.375 24.3004 10.0746 25 10.9375 25Z" fill="white"/>
<path d="M19.2708 25C20.1338 25 20.8333 24.3004 20.8333 23.4375C20.8333 22.5746 20.1338 21.875 19.2708 21.875C18.4079 21.875 17.7083 22.5746 17.7083 23.4375C17.7083 24.3004 18.4079 25 19.2708 25Z" fill="white"/>
<path d="M18.6948 12.3458C19.3406 11.8656 25 7.55208 25 3.89375C25 1.74687 23.2479 0 21.0938 0C19.9865 0 18.9542 0.464583 18.2292 1.24375C17.5031 0.464583 16.4719 0 15.3646 0C13.2104 0 11.4583 1.74687 11.4583 3.89375C11.4583 7.55208 17.1177 11.8656 17.7635 12.3458C17.901 12.449 18.0646 12.5 18.2292 12.5C18.3938 12.5 18.5563 12.449 18.6948 12.3458Z" fill="white"/>
<path d="M6.51042 17.7084H8.07188H8.07292H22.1354C22.5042 17.7084 22.824 17.449 22.9 17.0875L24.4333 9.80418C22.7896 11.7896 20.8302 13.3531 19.9386 14.0167C19.4396 14.3886 18.8479 14.5833 18.2292 14.5833C17.6104 14.5833 17.0188 14.3875 16.5208 14.0188C15.1406 12.9917 11.2052 9.82189 9.84792 6.25001H6.62396L6.22813 4.36876C5.95105 3.05626 4.77813 2.10001 3.4375 2.0948L0.784377 2.08334C0.783335 2.08334 0.782294 2.08334 0.781252 2.08334C0.351043 2.08334 0.00208499 2.43022 1.65064e-06 2.86147C-0.00208168 3.29272 0.346877 3.64376 0.778127 3.64584L3.43021 3.6573C4.03959 3.65939 4.57292 4.0948 4.69896 4.69064L5.225 7.19168L7.11042 16.1458H6.51042C5.21771 16.1458 4.16667 17.1969 4.16667 18.4896C4.16667 19.7823 5.21771 20.8334 6.51042 20.8334H22.1354C22.5667 20.8334 22.9167 20.4834 22.9167 20.0521C22.9167 19.6209 22.5667 19.2709 22.1354 19.2709H6.51042C6.07917 19.2709 5.72917 18.9209 5.72917 18.4896C5.72917 18.0584 6.07917 17.7084 6.51042 17.7084Z" fill="white"/>
</g>
<defs>
<clipPath id="clip0_7_2945">
<rect width="25" height="25" fill="white"/>
</clipPath>
</defs>
</svg>
