<svg width="30" height="30" viewBox="0 0 30 30" fill="none" xmlns="http://www.w3.org/2000/svg">
<rect width="30" height="30" rx="15" fill="white"/>
<path d="M15 18.0762C16.6989 18.0762 18.0762 16.6989 18.0762 15C18.0762 13.3011 16.6989 11.9238 15 11.9238C13.3011 11.9238 11.9238 13.3011 11.9238 15C11.9238 16.6989 13.3011 18.0762 15 18.0762Z" fill="#232938"/>
<path d="M15 0C6.71574 0 0 6.71574 0 15C0 23.2843 6.71574 30 15 30C23.2843 30 30 23.2843 30 15C30 6.71574 23.2843 0 15 0ZM24.2675 18.8124C24.1955 20.2385 23.7947 21.6448 22.7555 22.673C21.7061 23.711 20.2932 24.0977 18.8534 24.169H11.1467C9.70668 24.0977 8.29392 23.7112 7.24458 22.673C6.20526 21.6448 5.80458 20.2385 5.73258 18.8124V11.1876C5.80458 9.76152 6.20532 8.35524 7.24458 7.32696C8.29392 6.28896 9.70686 5.9022 11.1467 5.83098H18.8533C20.2933 5.9022 21.7061 6.28878 22.7554 7.32696C23.7947 8.35524 24.1954 9.76152 24.2674 11.1876L24.2675 18.8124Z" fill="#232938"/>
<path d="M18.668 7.74248C16.8348 7.6922 13.1657 7.6922 11.3325 7.74248C10.3785 7.76867 9.29707 8.00615 8.61738 8.73213C7.9111 9.48676 7.6442 10.3985 7.61713 11.4184C7.56955 13.2086 7.61713 18.5816 7.61713 18.5816C7.64813 19.6015 7.9111 20.5133 8.61738 21.2679C9.29707 21.9941 10.3785 22.2314 11.3325 22.2576C13.1657 22.3078 16.8348 22.3078 18.668 22.2576C19.6219 22.2314 20.7034 21.9939 21.3831 21.2679C22.0894 20.5133 22.3563 19.6016 22.3833 18.5816V11.4184C22.3563 10.3985 22.0894 9.48676 21.3831 8.73213C20.7032 8.00592 19.6217 7.76867 18.668 7.74248ZM15 19.7681C14.057 19.7681 13.1351 19.4884 12.351 18.9645C11.5669 18.4406 10.9558 17.6959 10.5949 16.8247C10.234 15.9534 10.1396 14.9947 10.3236 14.0698C10.5075 13.1449 10.9616 12.2953 11.6285 11.6285C12.2953 10.9617 13.1449 10.5075 14.0698 10.3236C14.9947 10.1396 15.9534 10.234 16.8247 10.5949C17.6959 10.9558 18.4406 11.5669 18.9645 12.351C19.4884 13.1351 19.7681 14.057 19.7681 15C19.7681 16.2646 19.2657 17.4774 18.3715 18.3716C17.4773 19.2657 16.2646 19.7681 15 19.7681ZM19.7883 11.2162C19.5997 11.2161 19.4154 11.1601 19.2586 11.0553C19.1018 10.9505 18.9796 10.8016 18.9075 10.6273C18.8353 10.4531 18.8165 10.2613 18.8533 10.0764C18.8901 9.89139 18.981 9.72149 19.1144 9.58815C19.2477 9.45481 19.4176 9.36401 19.6026 9.32723C19.7876 9.29045 19.9793 9.30935 20.1536 9.38154C20.3278 9.45372 20.4767 9.57595 20.5815 9.73276C20.6863 9.88958 20.7422 10.0739 20.7422 10.2625C20.7422 10.3878 20.7175 10.5118 20.6696 10.6275C20.6216 10.7432 20.5514 10.8484 20.4628 10.9369C20.3742 11.0255 20.2691 11.0957 20.1533 11.1436C20.0376 11.1915 19.9136 11.2162 19.7883 11.2162Z" fill="#232938"/>
</svg>
